# xmcd CD database file
#
# Track frame offsets:
#	150
#	16839
#	28665
#	47190
#	56528
#	84637
#	91514
#	134875
#	150863
#	165540
#	186878
#
# Disc length: 2729 seconds
#
# Revision: 0
# Processed by: cddbd v1.5.1PL0 Copyright (c) Steve Scherf et al.
# Submitted via: CDex 1.51
#
DISCID=800aa70b
DTITLE=Gnawa Impulse - Les Plus Belles Voix (world collection)
DYEAR=1900
DGENRE=New Age
TTITLE0=Teboute Fo Bougolo
TTITLE1=Amara Ca
TTITLE2=On a Koubati
TTITLE3=Gnawa Airlines
TTITLE4=Tibel On Air
TTITLE5=Mekka
TTITLE6=Saadis Vipes
TTITLE7=The Kumala Song
TTITLE8=La Ilah Express
TTITLE9=Miras Trance
TTITLE10=Okay
EXTD=
EXTT0=
EXTT1=
EXTT2=
EXTT3=
EXTT4=
EXTT5=
EXTT6=
EXTT7=
EXTT8=
EXTT9=
EXTT10=
PLAYORDER=
